<?xml version="1.0" encoding="utf-8" ?>
<svg xmlns="http://www.w3.org/2000/svg" xmlns:xlink="http://www.w3.org/1999/xlink" width="1023" height="1024">
	<path fill="#346BB4" d="M0 0L485.222 0L540.97 0L1024 0L1024 485.714L1024 531.841L1024 1024L540.397 1024L485.145 1024L0 1024L0 530.23L0 491.263L0 0Z"/>
	<path fill="#E5F0FB" d="M540.397 1024C548.193 1022.42 556.804 1022.49 564.75 1021.75Q586.101 1019.84 607.186 1015.98C687.616 1001.21 762.008 965.927 826.736 916.397Q831.277 912.875 835.738 909.251Q840.199 905.628 844.576 901.904Q848.954 898.181 853.247 894.36Q857.54 890.539 861.745 886.622Q865.951 882.705 870.066 878.694Q874.182 874.683 878.207 870.581Q882.231 866.478 886.162 862.286Q890.093 858.093 893.928 853.813Q897.764 849.533 901.501 845.168Q905.239 840.802 908.877 836.354Q912.516 831.905 916.053 827.375Q919.59 822.846 923.024 818.237Q926.458 813.629 929.787 808.945Q933.116 804.26 936.339 799.502Q939.561 794.743 942.676 789.913Q945.79 785.083 948.795 780.184Q951.8 775.285 954.693 770.32Q957.586 765.354 960.367 760.325Q963.148 755.295 965.814 750.205Q968.481 745.114 971.032 739.964Q973.583 734.814 976.017 729.608Q978.451 724.402 980.767 719.142Q983.083 713.883 985.28 708.572Q987.477 703.261 989.554 697.903Q991.63 692.544 993.585 687.14Q995.54 681.735 997.373 676.289Q999.206 670.842 1000.91 665.355Q1002.62 659.868 1004.21 654.344Q1005.79 648.82 1007.25 643.261Q1008.71 637.703 1010.05 632.113Q1011.38 626.523 1012.59 620.904Q1013.8 615.285 1014.88 609.641C1018.03 593.799 1020.61 577.68 1021.96 561.575C1022.77 551.91 1022.61 541.971 1023.92 532.383L1024 531.841L1024 1024L540.397 1024Z"/>
	<path fill="#E5F0FB" d="M540.97 0L1024 0L1024 485.714C1022.43 478.293 1023 469.656 1022.53 462.055C1021.97 452.74 1020.49 443.446 1018.84 434.269C1016.15 419.368 1013.43 404.441 1009.78 389.742C993.515 324.408 964.883 265.37 925.805 210.728Q922.49 206.116 919.072 201.58Q915.654 197.044 912.136 192.586Q908.617 188.127 905 183.749Q901.382 179.37 897.667 175.074Q893.953 170.777 890.143 166.565Q886.333 162.353 882.429 158.228Q878.526 154.102 874.531 150.065Q870.536 146.028 866.452 142.081Q862.368 138.134 858.196 134.28Q854.024 130.426 849.767 126.666Q845.51 122.906 841.17 119.243Q836.83 115.579 832.409 112.014Q827.988 108.449 823.488 104.983Q818.988 101.518 814.412 98.1543Q809.835 94.7906 805.185 91.5302Q800.534 88.2699 795.812 85.1145Q791.089 81.9592 786.297 78.9104Q781.505 75.8617 776.646 72.921Q771.787 69.9803 766.864 67.1493Q761.94 64.3182 756.954 61.5982Q751.968 58.8781 746.923 56.2704Q741.877 53.6627 736.774 51.1687Q731.672 48.6747 726.514 46.2957Q721.357 43.9166 716.148 41.6537Q710.938 39.3908 705.68 37.2451Q700.421 35.0994 695.116 33.0721Q689.81 31.0448 684.461 29.1368Q679.111 27.2288 673.72 25.4412Q668.329 23.6536 662.9 21.9871Q657.47 20.3207 652.005 18.7763Q646.539 17.2319 641.04 15.8104Q635.541 14.3888 630.012 13.0908Q599.608 5.95291 568.557 2.61036C559.63 1.58328 550.392 1.62869 541.565 0.108453L540.97 0Z"/>
	<path fill="#E5F0FB" d="M0 530.23L0.0845614 530.788C1.42832 540.152 1.18696 549.772 2.1175 559.192C4.28786 581.161 7.57391 603.483 12.245 625.043C19.1067 656.714 29.5719 686.92 42.6428 716.52C46.9374 726.246 51.1456 736.06 56.0104 745.517Q59.413 752.003 62.9956 758.391Q66.5781 764.78 70.3378 771.066Q74.0975 777.351 78.0314 783.53Q81.9653 789.708 86.0704 795.774Q90.1755 801.84 94.4484 807.788Q98.7214 813.737 103.159 819.564Q107.597 825.391 112.195 831.092Q116.794 836.792 121.55 842.362Q126.307 847.932 131.217 853.367Q136.127 858.802 141.187 864.098Q146.247 869.393 151.453 874.545Q156.659 879.697 162.007 884.701Q167.355 889.706 172.841 894.559Q178.327 899.412 183.946 904.11Q189.565 908.808 195.314 913.347Q201.062 917.886 206.935 922.262Q212.834 926.756 218.864 931.074Q224.894 935.392 231.049 939.53Q237.204 943.668 243.478 947.622Q249.752 951.576 256.141 955.343Q262.53 959.109 269.027 962.686Q275.524 966.262 282.124 969.645Q288.724 973.027 295.421 976.213Q302.118 979.399 308.907 982.386Q315.695 985.373 322.569 988.157Q329.442 990.942 336.395 993.522Q343.348 996.103 350.375 998.476Q357.401 1000.85 364.494 1003.01Q371.588 1005.18 378.742 1007.13Q385.896 1009.09 393.105 1010.83Q400.314 1012.57 407.571 1014.1Q414.829 1015.63 422.128 1016.94Q442.596 1020.42 463.28 1022.21C470.388 1022.84 478.184 1022.66 485.145 1024L0 1024L0 530.23Z"/>
	<path fill="#E5F0FB" d="M0 0L485.222 0C485.038 0.0349064 484.855 0.0717435 484.672 0.104719C475.85 1.68883 466.485 1.59064 457.541 2.54405Q426.978 5.66743 396.984 12.3192Q391.243 13.6781 385.535 15.1679Q379.827 16.6577 374.155 18.2777Q368.483 19.8976 362.849 21.6467Q357.215 23.3959 351.622 25.2734Q346.03 27.1509 340.482 29.1558Q334.934 31.1606 329.433 33.2918Q323.932 35.423 318.481 37.6794Q313.031 39.9358 307.633 42.3162Q302.236 44.6965 296.894 47.1997Q291.552 49.7029 286.269 52.3275Q280.986 54.9522 275.764 57.6969Q270.542 60.4416 265.384 63.305Q260.227 66.1684 255.136 69.1489Q250.045 72.1295 245.024 75.2256Q240.002 78.3218 235.053 81.5319Q230.104 84.7421 225.229 88.0645Q220.354 91.387 215.557 94.82Q210.76 98.253 206.042 101.795Q201.324 105.337 196.689 108.985Q192.053 112.634 187.503 116.388Q182.952 120.141 178.488 123.998Q174.024 127.855 169.65 131.813Q165.275 135.771 160.992 139.828Q156.709 143.884 152.52 148.038Q148.331 152.192 144.238 156.44Q140.146 160.688 136.151 165.029Q132.156 169.37 128.262 173.801Q124.367 178.232 120.575 182.751Q116.783 187.27 113.095 191.874Q109.407 196.478 105.825 201.166Q102.244 205.853 98.7702 210.622Q95.2967 215.39 91.9331 220.236Q87.8641 225.977 83.9588 231.831Q80.0536 237.686 76.3152 243.647Q72.5768 249.609 69.0083 255.675Q65.4397 261.74 62.0439 267.903Q58.648 274.067 55.4276 280.324Q52.2072 286.581 49.1647 292.926Q46.1223 299.272 43.2602 305.7Q40.3982 312.129 37.7188 318.636Q35.0394 325.143 32.5449 331.723Q30.0504 338.304 27.7426 344.952Q25.4349 351.599 23.3158 358.31Q21.1967 365.02 19.268 371.788Q17.3393 378.556 15.6024 385.375Q13.8656 392.194 12.322 399.06Q10.7784 405.926 9.42931 412.833Q8.08022 419.739 6.92671 426.681Q3.74166 446.964 1.99452 467.421C1.34493 475.252 1.50125 483.574 0 491.263L0 0Z"/>
	<path fill="#E5F0FB" d="M501.207 15.7196Q502.6 15.6475 503.995 15.6132Q509.956 15.5301 515.917 15.5898Q521.877 15.6495 527.835 15.852Q533.793 16.0544 539.744 16.3995Q545.695 16.7446 551.637 17.2322Q557.578 17.7197 563.506 18.3495Q569.434 18.9792 575.345 19.7507Q581.256 20.5223 587.147 21.4352Q593.038 22.3481 598.905 23.4018Q604.772 24.4556 610.613 25.6496Q616.453 26.8435 622.263 28.1771Q628.073 29.5106 633.85 30.9829Q639.626 32.4553 645.366 34.0655Q651.106 35.6758 656.805 37.4231Q662.505 39.1704 668.16 41.0537Q673.816 42.937 679.425 44.9552Q685.035 46.9734 690.594 49.1254Q696.153 51.2775 701.659 53.562Q707.165 55.8466 712.615 58.2623Q718.065 60.6781 723.455 63.2238Q728.845 65.7694 734.173 68.4434Q739.501 71.1174 744.763 73.9183Q750.026 76.7191 755.219 79.6452Q760.413 82.5714 765.535 85.621Q770.657 88.6707 775.705 91.8422Q780.752 95.0137 785.722 98.3051Q790.692 101.597 795.582 105.006Q800.472 108.416 805.279 111.942Q810.086 115.467 814.807 119.107Q819.528 122.747 824.16 126.499Q828.793 130.251 833.334 134.113Q837.875 137.974 842.323 141.944Q846.77 145.913 851.121 149.988Q855.64 154.254 860.051 158.631Q864.463 163.007 868.765 167.492Q873.067 171.976 877.256 176.566Q881.446 181.156 885.521 185.848Q889.596 190.54 893.553 195.331Q897.51 200.123 901.348 205.011Q905.185 209.898 908.9 214.88Q912.616 219.861 916.207 224.933Q919.797 230.005 923.261 235.164Q926.725 240.324 930.061 245.567Q933.396 250.811 936.601 256.135Q939.805 261.459 942.877 266.862Q945.948 272.264 948.885 277.74Q951.822 283.217 954.623 288.764Q957.423 294.312 960.086 299.927Q962.748 305.542 965.271 311.222Q967.793 316.901 970.174 322.641Q972.555 328.381 974.793 334.178Q977.031 339.976 979.125 345.827Q981.219 351.677 983.168 357.578Q985.116 363.479 986.918 369.427Q988.72 375.374 990.374 381.364Q992.028 387.355 993.533 393.384Q995.039 399.413 996.394 405.478Q997.75 411.543 998.954 417.639Q1000.16 423.735 1001.21 429.86Q1002.27 435.984 1003.17 442.133Q1004.07 448.281 1004.82 454.45Q1005.57 460.619 1006.16 466.805Q1006.76 472.991 1007.2 479.189Q1007.65 485.388 1007.94 491.595Q1008.22 497.803 1008.36 504.016Q1008.44 509.314 1008.42 514.613Q1008.39 519.911 1008.24 525.208Q1008.1 530.505 1007.84 535.797Q1007.59 541.09 1007.21 546.376Q1006.84 551.661 1006.36 556.938Q1005.88 562.214 1005.28 567.479Q1004.68 572.744 1003.97 577.995Q1003.26 583.246 1002.43 588.48Q1001.61 593.715 1000.67 598.93Q999.739 604.146 998.691 609.34Q997.643 614.534 996.484 619.704Q995.324 624.874 994.054 630.019Q992.784 635.163 991.403 640.278Q990.022 645.394 988.532 650.479Q987.042 655.564 985.442 660.615Q983.843 665.667 982.135 670.683Q980.428 675.699 978.613 680.677Q976.797 685.655 974.876 690.593Q972.954 695.531 970.927 700.427Q968.899 705.322 966.767 710.173Q964.635 715.024 962.398 719.828Q960.162 724.631 957.823 729.386Q955.484 734.141 953.044 738.844Q950.603 743.547 948.062 748.197Q945.521 752.846 942.88 757.44Q940.24 762.034 937.501 766.57Q934.762 771.106 931.927 775.582Q929.091 780.058 926.16 784.472Q923.228 788.886 920.203 793.236Q917.177 797.586 914.059 801.87Q910.94 806.154 907.73 810.37Q904.521 814.586 901.221 818.732C893.76 828.045 886.425 837.508 878.167 846.139C865.016 859.884 851.639 873.734 837.248 886.179Q833.199 889.716 829.074 893.165Q824.948 896.614 820.749 899.971Q816.55 903.329 812.279 906.595Q808.008 909.861 803.666 913.033Q799.325 916.206 794.916 919.283Q790.506 922.36 786.031 925.34Q781.556 928.32 777.017 931.203Q772.478 934.085 767.878 936.868Q763.277 939.651 758.618 942.333Q753.958 945.016 749.24 947.596Q744.523 950.176 739.751 952.653Q734.979 955.13 730.154 957.503Q725.329 959.875 720.454 962.143Q715.578 964.41 710.655 966.57Q705.731 968.731 700.762 970.784Q695.792 972.837 690.779 974.781Q685.767 976.726 680.713 978.561Q675.659 980.396 670.566 982.12Q665.473 983.845 660.344 985.458Q655.215 987.072 650.053 988.573Q644.89 990.074 639.695 991.463Q634.501 992.852 629.278 994.128Q624.055 995.403 618.805 996.565Q613.555 997.726 608.281 998.773Q603.007 999.821 597.712 1000.75Q592.417 1001.68 587.102 1002.5Q581.788 1003.32 576.457 1004.02Q571.126 1004.72 565.782 1005.31Q560.437 1005.89 555.081 1006.36Q549.724 1006.83 544.359 1007.18Q538.994 1007.53 533.622 1007.77Q528.25 1008 522.875 1008.12Q511.361 1008.45 499.846 1008.2Q488.33 1007.95 476.841 1007.13Q465.352 1006.31 453.918 1004.92Q442.484 1003.53 431.134 1001.57C330.022 984.911 244.591 939.389 169.573 870.307C148.554 850.951 128.379 826.761 111.632 803.682C95.7154 781.746 81.1511 759.039 68.7848 734.881Q65.8537 729.057 63.0771 723.158Q60.3006 717.259 57.6805 711.288Q55.0605 705.318 52.5988 699.281Q50.1371 693.243 47.8354 687.143Q45.5337 681.043 43.3937 674.884Q41.2537 668.726 39.2768 662.513Q37.2999 656.3 35.4875 650.037Q33.6751 643.774 32.0285 637.465Q30.3819 631.157 28.9022 624.807Q27.4225 618.457 26.1107 612.071Q24.7989 605.684 23.656 599.265Q22.5131 592.846 21.5398 586.399Q20.5665 579.953 19.7636 573.482Q18.9606 567.012 18.3286 560.523Q17.6965 554.034 17.2357 547.53Q16.775 541.026 16.4859 534.513Q16.2218 528.339 16.1114 522.161Q16.0011 515.982 16.0445 509.803Q16.0879 503.623 16.2851 497.447Q16.4823 491.271 16.8332 485.101Q17.184 478.932 17.6883 472.773Q18.1926 466.614 18.85 460.469Q19.5073 454.325 20.3174 448.199Q21.1276 442.073 22.0899 435.969Q23.0522 429.864 24.1661 423.786Q25.28 417.708 26.5449 411.659Q27.8097 405.611 29.2247 399.595Q30.6397 393.58 32.2039 387.602Q33.7682 381.623 35.4807 375.686Q37.1933 369.748 39.053 363.855Q40.9128 357.962 42.9187 352.118Q44.9245 346.273 47.0752 340.479Q49.2259 334.686 51.5201 328.948Q53.8143 323.211 56.2506 317.532Q58.6869 311.853 61.2637 306.236Q63.8406 300.62 66.5564 295.069Q69.2723 289.518 72.1254 284.037Q74.9785 278.555 77.9672 273.147Q80.9559 267.738 84.0782 262.405Q87.2005 257.072 90.4546 251.819Q93.7087 246.566 97.0925 241.395Q100.476 236.224 103.988 231.14Q107.499 226.055 111.136 221.059Q114.773 216.063 118.533 211.159Q122.293 206.255 126.174 201.446Q130.055 196.638 134.055 191.927Q138.054 187.216 142.17 182.607Q146.285 177.997 150.514 173.491Q153.403 170.382 156.345 167.323Q159.287 164.264 162.28 161.256Q165.274 158.247 168.319 155.291Q171.363 152.334 174.458 149.43Q177.553 146.526 180.697 143.676Q183.842 140.825 187.034 138.029Q190.227 135.232 193.466 132.491Q196.706 129.75 199.993 127.064Q203.279 124.379 206.611 121.75Q209.943 119.121 213.319 116.55Q216.696 113.978 220.115 111.465Q223.535 108.952 226.998 106.497Q230.46 104.043 233.964 101.648Q237.468 99.2537 241.012 96.9193Q244.557 94.585 248.14 92.3116Q251.724 90.0383 255.346 87.8266Q258.969 85.615 262.628 83.4656Q266.288 81.3163 269.984 79.2299Q273.679 77.1435 277.41 75.1207Q281.141 73.0979 284.906 71.1392Q288.671 69.1806 292.469 67.2867Q296.267 65.3927 300.097 63.5641Q303.927 61.7355 307.788 59.9727Q311.648 58.2099 315.539 56.5134Q319.429 54.817 323.348 53.1873Q327.266 51.5577 331.212 49.9954Q335.158 48.4331 339.13 46.9386Q343.103 45.4441 347.1 44.0178Q351.097 42.5914 355.118 41.2338Q359.139 39.8761 363.183 38.5874Q367.226 37.2988 371.291 36.0795Q375.357 34.8603 379.442 33.7108C419.325 22.7718 459.949 17.3259 501.207 15.7196Z"/>
	<path fill="#346BB4" d="M505.486 38.253Q506.123 38.2321 506.761 38.2201Q511.7 38.1453 516.639 38.1748Q521.578 38.2044 526.515 38.3383Q531.452 38.4722 536.386 38.7104Q541.319 38.9487 546.246 39.2911Q551.173 39.6335 556.092 40.08Q561.011 40.5265 565.919 41.0769Q570.828 41.6272 575.724 42.2812Q580.619 42.9351 585.5 43.6924Q590.381 44.4496 595.244 45.3099Q600.108 46.1701 604.952 47.1329Q609.797 48.0958 614.62 49.1608Q619.442 50.2257 624.242 51.3924Q629.041 52.5591 633.815 53.827Q638.588 55.0948 643.334 56.4632Q648.08 57.8317 652.796 59.3001Q657.511 60.7686 662.195 62.3363Q666.879 63.9041 671.528 65.5705Q676.178 67.2369 680.791 69.0012Q685.404 70.7654 689.979 72.6268Q694.554 74.4882 699.089 76.4459Q703.623 78.4035 708.116 80.4566Q712.608 82.5096 717.056 84.6571Q721.503 86.8046 725.905 89.0457Q730.306 91.2867 734.659 93.6203Q739.013 95.9538 743.315 98.3789Q747.618 100.804 751.869 103.319Q756.119 105.835 760.316 108.439Q764.512 111.044 768.653 113.737Q772.793 116.43 776.876 119.209Q780.959 121.989 784.982 124.854Q789.005 127.72 792.966 130.669Q796.928 133.619 800.826 136.652C813.054 146.176 824.766 155.834 835.912 166.629C908.638 237.055 957.209 321.022 977.14 420.701Q979.248 430.972 980.887 441.328Q982.527 451.685 983.693 462.105Q984.86 472.525 985.552 482.987Q986.244 493.45 986.46 503.933Q986.555 509.808 986.503 515.683Q986.451 521.558 986.252 527.43Q986.054 533.302 985.71 539.167Q985.365 545.033 984.875 550.888Q984.384 556.743 983.748 562.583Q983.111 568.424 982.33 574.248Q981.548 580.071 980.622 585.873Q979.695 591.675 978.625 597.452Q977.554 603.229 976.339 608.977Q975.125 614.726 973.768 620.442Q972.411 626.159 970.912 631.84Q969.412 637.521 967.772 643.163Q966.132 648.804 964.351 654.404Q962.571 660.003 960.652 665.556Q958.733 671.109 956.675 676.613Q954.618 682.116 952.425 687.567Q950.231 693.017 947.903 698.412Q945.574 703.806 943.112 709.14Q940.649 714.475 938.055 719.746Q935.46 725.018 932.735 730.223Q930.01 735.429 927.156 740.564Q924.302 745.7 921.322 750.763Q918.341 755.826 915.234 760.813Q912.128 765.801 908.899 770.709Q905.669 775.617 902.318 780.443Q898.968 785.27 895.498 790.011Q892.028 794.752 888.441 799.406Q884.854 804.059 881.152 808.622Q877.45 813.184 873.636 817.653Q869.821 822.122 865.897 826.494Q861.972 830.867 857.94 835.14Q853.907 839.413 849.77 843.585Q845.737 847.713 841.604 851.742Q837.472 855.77 833.243 859.698Q829.014 863.625 824.691 867.448Q820.367 871.271 815.953 874.988Q811.538 878.705 807.034 882.314Q802.53 885.922 797.94 889.421Q793.35 892.919 788.676 896.304Q784.002 899.69 779.247 902.961Q774.492 906.232 769.66 909.387Q764.827 912.541 759.919 915.577Q755.011 918.613 750.03 921.529Q745.05 924.445 740 927.24Q734.95 930.034 729.834 932.704Q724.718 935.375 719.539 937.92Q714.359 940.466 709.119 942.885Q703.879 945.304 698.582 947.594Q693.285 949.885 687.934 952.047Q682.583 954.208 677.181 956.239Q671.778 958.27 666.328 960.169Q660.879 962.068 655.384 963.834Q649.89 965.6 644.354 967.232Q638.818 968.864 633.245 970.361Q627.671 971.858 622.062 973.219Q616.454 974.58 610.814 975.804Q605.174 977.029 599.506 978.116Q593.839 979.203 588.146 980.151Q582.453 981.1 576.739 981.911Q571.025 982.721 565.293 983.392Q559.561 984.064 553.814 984.595Q548.067 985.127 542.31 985.519Q536.552 985.911 530.786 986.163Q525.02 986.415 519.25 986.527C390.709 987.665 275.811 941.253 182.82 852.804Q178.675 848.802 174.628 844.7Q170.582 840.598 166.636 836.399Q162.689 832.2 158.846 827.907Q155.003 823.613 151.266 819.228Q147.528 814.843 143.898 810.368Q140.268 805.893 136.747 801.332Q133.226 796.77 129.817 792.125Q126.408 787.479 123.113 782.752Q119.818 778.025 116.638 773.22Q113.459 768.414 110.397 763.533Q107.335 758.652 104.392 753.698Q101.449 748.744 98.6275 743.72Q95.8058 738.697 93.1067 733.606Q90.4077 728.515 87.833 723.36Q85.2583 718.205 82.8094 712.989Q80.3604 707.773 78.0388 702.5Q75.7171 697.226 73.5241 691.898Q71.331 686.569 69.2679 681.189Q67.2047 675.809 65.2727 670.381Q63.3407 664.952 61.5409 659.478Q59.7412 654.004 58.0747 648.489Q56.4083 642.973 54.8762 637.418Q53.344 631.863 51.9471 626.273Q50.5501 620.683 49.2892 615.06Q48.0283 609.438 46.9041 603.787Q45.78 598.135 44.7933 592.458Q43.8065 586.781 42.9578 581.082Q42.1091 575.383 41.3989 569.665Q40.6887 563.947 40.1174 558.213Q39.5461 552.479 39.1141 546.733Q38.682 540.987 38.3895 535.233Q38.097 529.478 37.9442 523.718Q37.8065 516.57 37.8806 509.421Q37.9547 502.272 38.2406 495.128Q38.5264 487.984 39.0237 480.852Q39.521 473.72 40.2293 466.606Q40.9376 459.491 41.8563 452.401Q42.775 445.311 43.9034 438.251Q45.0317 431.191 46.3686 424.168Q47.7056 417.145 49.2499 410.164Q50.7943 403.183 52.5447 396.251Q54.2952 389.319 56.2502 382.443Q58.2052 375.566 60.363 368.749Q62.5209 361.933 64.8796 355.184Q67.2384 348.435 69.796 341.759Q72.3537 335.082 75.1079 328.485Q77.8622 321.887 80.8106 315.374Q83.7591 308.861 86.8992 302.438Q91.1969 294.021 95.8006 285.767Q100.404 277.513 105.308 269.434Q110.212 261.355 115.409 253.461Q120.606 245.567 126.089 237.869Q131.572 230.172 137.334 222.68Q143.096 215.189 149.13 207.914Q155.163 200.64 161.459 193.592Q167.755 186.543 174.306 179.731Q185.486 168.215 197.478 157.547Q209.47 146.879 222.209 137.116C304.322 73.0809 401.623 40.4923 505.486 38.253Z"/>
	<path fill="#E5F0FB" d="M494.269 55.2189Q495.686 55.161 497.104 55.1268Q502.803 54.9507 508.504 54.9169Q514.206 54.8831 519.907 54.9917Q525.607 55.1002 531.303 55.351Q536.999 55.6017 542.688 55.9946Q548.376 56.3875 554.052 56.9222Q559.729 57.4569 565.39 58.1331Q571.052 58.8094 576.694 59.6267Q582.337 60.444 587.958 61.4019Q593.578 62.3598 599.173 63.4577Q604.768 64.5556 610.334 65.7928Q615.9 67.03 621.433 68.4057Q626.966 69.7814 632.463 71.2948Q637.96 72.8082 643.418 74.4584Q648.876 76.1085 654.29 77.8943Q659.705 79.6802 665.074 81.6006Q670.442 83.521 675.761 85.5749Q681.08 87.6287 686.346 89.8146Q691.612 92.0005 696.822 94.3172Q702.031 96.6339 707.182 99.0799Q712.332 101.526 717.42 104.1Q722.507 106.673 727.529 109.373Q732.551 112.073 737.504 114.898Q742.457 117.722 747.338 120.67Q752.219 123.617 757.024 126.685Q761.83 129.753 766.558 132.94Q771.286 136.127 775.932 139.431Q780.579 142.735 785.142 146.154Q789.705 149.573 794.181 153.105Q798.656 156.637 803.043 160.28Q807.429 163.922 811.724 167.673Q816.018 171.424 820.217 175.281Q824.416 179.138 828.518 183.098Q832.539 186.947 836.465 190.893Q840.392 194.839 844.221 198.88Q848.05 202.92 851.779 207.052Q855.509 211.185 859.137 215.407Q862.765 219.629 866.289 223.938Q869.813 228.247 873.231 232.64Q876.649 237.034 879.959 241.509Q883.269 245.985 886.47 250.539Q889.67 255.094 892.758 259.725Q895.847 264.356 898.822 269.061Q901.796 273.766 904.656 278.542Q907.515 283.318 910.257 288.163Q913 293.007 915.623 297.916Q918.247 302.826 920.75 307.798Q923.253 312.77 925.635 317.801Q928.016 322.833 930.275 327.92Q932.533 333.008 934.667 338.15Q936.801 343.291 938.809 348.483Q940.817 353.674 942.698 358.914Q944.579 364.153 946.332 369.436Q948.085 374.719 949.709 380.044Q951.333 385.368 952.827 390.731Q954.32 396.093 955.683 401.49Q957.046 406.887 958.277 412.316Q959.508 417.745 960.607 423.202Q961.705 428.659 962.671 434.141Q963.636 439.623 964.468 445.127Q965.299 450.631 965.997 456.154Q966.694 461.677 967.257 467.215Q967.82 472.753 968.248 478.303Q968.676 483.853 968.968 489.412Q969.261 494.971 969.418 500.535Q969.529 505.141 969.547 509.749Q969.564 514.357 969.489 518.964Q969.414 523.571 969.246 528.176Q969.078 532.78 968.817 537.381Q968.557 541.981 968.203 546.575Q967.849 551.169 967.403 555.755Q966.957 560.341 966.419 564.918Q965.88 569.494 965.25 574.058Q964.619 578.622 963.896 583.173Q963.174 587.724 962.359 592.259Q961.545 596.794 960.64 601.312Q959.734 605.83 958.738 610.329Q957.741 614.828 956.654 619.305Q955.567 623.783 954.39 628.238Q953.213 632.693 951.946 637.123Q950.68 641.553 949.324 645.957Q947.968 650.361 946.524 654.736Q945.08 659.112 943.548 663.457Q942.015 667.803 940.396 672.116Q938.776 676.43 937.07 680.71Q935.364 684.991 933.572 689.235Q931.78 693.48 929.902 697.688Q928.025 701.896 926.063 706.065Q924.101 710.235 922.056 714.363Q920.01 718.492 917.882 722.579Q915.753 726.666 913.543 730.708Q911.332 734.751 909.041 738.749Q906.749 742.746 904.378 746.697Q902.006 750.648 899.555 754.549Q897.104 758.451 894.576 762.303Q892.047 766.155 889.44 769.955Q886.834 773.754 884.152 777.501C870.507 796.314 855.059 813.546 838.964 830.272Q836.154 833.179 833.293 836.036Q830.432 838.893 827.521 841.699Q824.61 844.505 821.65 847.26Q818.691 850.014 815.683 852.716Q812.675 855.419 809.621 858.068Q806.566 860.717 803.465 863.311Q800.365 865.906 797.219 868.446Q794.073 870.986 790.883 873.471Q787.693 875.955 784.46 878.383Q781.227 880.811 777.951 883.181Q774.676 885.552 771.36 887.865Q768.043 890.178 764.687 892.432Q761.33 894.686 757.934 896.881Q754.539 899.076 751.105 901.21Q747.672 903.345 744.201 905.419Q740.73 907.493 737.223 909.506Q733.717 911.519 730.175 913.47Q726.634 915.421 723.059 917.309Q719.484 919.198 715.876 921.023Q712.268 922.848 708.629 924.61Q704.99 926.371 701.32 928.069Q697.65 929.766 693.951 931.399Q690.252 933.031 686.525 934.599Q682.798 936.166 679.044 937.668Q675.29 939.17 671.51 940.605Q667.73 942.041 663.926 943.409Q660.122 944.778 656.294 946.08Q652.466 947.382 648.615 948.616Q644.765 949.85 640.894 951.017Q637.023 952.183 633.131 953.281Q629.24 954.38 625.33 955.41Q621.42 956.439 617.493 957.4C588.561 964.64 559.225 969.443 529.375 970.044C505.137 970.521 480.635 969.849 456.559 966.905Q452.12 966.342 447.694 965.693Q443.267 965.043 438.854 964.308Q434.44 963.573 430.042 962.751Q425.644 961.93 421.263 961.024Q416.881 960.117 412.519 959.125Q408.156 958.133 403.813 957.057Q399.47 955.98 395.149 954.819Q390.828 953.658 386.531 952.414Q382.233 951.169 377.961 949.841Q373.689 948.512 369.443 947.101Q365.197 945.69 360.98 944.197Q356.762 942.703 352.574 941.128Q348.387 939.552 344.231 937.896Q340.075 936.239 335.951 934.502Q331.828 932.765 327.74 930.947Q323.651 929.13 319.599 927.234Q315.547 925.337 311.532 923.362Q307.517 921.387 303.542 919.335Q299.566 917.282 295.632 915.152Q291.697 913.022 287.805 910.816Q283.912 908.61 280.063 906.329Q276.214 904.048 272.411 901.692Q268.607 899.336 264.85 896.907Q261.093 894.477 257.384 891.975Q253.675 889.473 250.015 886.899Q246.355 884.325 242.747 881.68Q239.138 879.036 235.581 876.321Q232.024 873.607 228.521 870.824Q225.018 868.041 221.57 865.19Q218.122 862.339 214.729 859.422Q211.337 856.504 208.003 853.521Q204.668 850.538 201.392 847.491Q198.078 844.44 194.826 841.324Q191.573 838.209 188.383 835.029Q185.193 831.849 182.067 828.607Q178.94 825.365 175.878 822.061Q172.817 818.758 169.821 815.394Q166.826 812.03 163.897 808.608Q160.969 805.186 158.109 801.706Q155.249 798.227 152.458 794.691Q149.668 791.156 146.948 787.565Q144.228 783.975 141.58 780.332Q138.931 776.689 136.356 772.994Q133.78 769.298 131.278 765.553Q128.776 761.808 126.349 758.013Q123.922 754.219 121.571 750.378Q119.219 746.536 116.944 742.649Q114.669 738.761 112.472 734.829Q110.274 730.898 108.155 726.923Q106.036 722.949 103.996 718.933Q101.956 714.917 99.9957 710.862Q98.0357 706.807 96.1563 702.714Q94.277 698.62 92.4792 694.49Q90.6813 690.361 88.9656 686.196Q87.2499 682.031 85.617 677.834Q83.9842 673.636 82.4348 669.407Q80.8855 665.177 79.4202 660.918Q77.9549 656.659 76.5743 652.372Q75.1937 648.085 73.8983 643.771Q72.6029 639.457 71.3932 635.118Q70.1835 630.779 69.06 626.418Q67.9366 622.056 66.8997 617.673Q65.8628 613.29 64.913 608.887Q63.9632 604.484 63.1008 600.063C58.907 579.233 55.5522 558.019 54.6455 536.765Q54.4349 532.46 54.3057 528.153Q54.1765 523.845 54.1289 519.535Q54.0813 515.226 54.1152 510.916Q54.1491 506.606 54.2645 502.298Q54.3799 497.99 54.5769 493.685Q54.7738 489.379 55.0521 485.078Q55.3305 480.778 55.6902 476.483Q56.0498 472.188 56.4907 467.901Q56.9315 463.614 57.4534 459.336Q57.9753 455.058 58.5781 450.79Q59.1808 446.523 59.8642 442.267Q60.5475 438.012 61.3113 433.771Q62.075 429.529 62.9189 425.303Q63.7628 421.076 64.6864 416.867Q65.6101 412.657 66.6133 408.466Q67.6164 404.274 68.6987 400.102Q69.781 395.931 70.942 391.78Q72.103 387.63 73.3423 383.502Q74.5817 379.374 75.8989 375.271Q77.2161 371.167 78.6107 367.089Q80.0053 363.011 81.4768 358.96Q82.9483 354.91 84.4962 350.887Q86.0441 346.865 87.6678 342.873Q89.2915 338.881 90.9904 334.92Q92.6893 330.959 94.4629 327.031Q96.2365 323.103 98.0841 319.21Q99.9317 315.316 101.853 311.458Q103.773 307.6 105.767 303.779Q107.761 299.958 109.826 296.175Q111.892 292.393 114.028 288.65Q116.165 284.907 118.372 281.205Q120.579 277.503 122.856 273.844C137.427 250.019 153.978 226.87 172.913 206.312C184.766 193.443 197.056 180.636 210.15 169.034Q213.803 165.802 217.525 162.649Q221.246 159.495 225.035 156.423Q228.823 153.35 232.676 150.36Q236.53 147.369 240.447 144.462Q244.363 141.555 248.342 138.732Q252.32 135.91 256.358 133.173Q260.395 130.437 264.491 127.787Q268.587 125.138 272.738 122.577Q276.89 120.017 281.095 117.546Q285.301 115.075 289.559 112.694Q293.816 110.314 298.124 108.026Q302.431 105.738 306.787 103.542Q311.143 101.347 315.545 99.2454Q319.947 97.144 324.393 95.1375Q328.839 93.131 333.327 91.2204Q337.815 89.3098 342.343 87.496Q346.871 85.6821 351.437 83.9658Q356.003 82.2495 360.604 80.6316Q365.206 79.0137 369.841 77.4949Q374.476 75.9761 379.143 74.5571Q383.81 73.1381 388.506 71.8196Q393.202 70.5011 397.926 69.2836Q402.649 68.0662 407.398 66.9504Q412.146 65.8346 416.917 64.8209Q421.689 63.8072 426.48 62.8962Q431.272 61.9851 436.083 61.1771Q440.893 60.3691 445.72 59.6645Q450.546 58.9598 455.387 58.359Q460.228 57.7581 465.08 57.2612Q469.932 56.7643 474.794 56.3717Q479.656 55.979 484.525 55.6908Q489.395 55.4026 494.269 55.2189Z"/>
	<path fill="#346BB4" d="M403.624 872.531C403.824 872.506 404.025 872.475 404.226 872.456C407.937 872.107 417.331 871.61 420.062 874.549C420.565 875.09 420.914 875.838 420.905 876.577C420.877 878.727 419.632 880.244 418.23 881.735C418.075 881.768 417.921 881.808 417.764 881.835C414.285 882.429 405.121 883.066 402.366 880.465C401.754 879.887 401.386 879.172 401.289 878.353C401.042 876.262 402.323 874.051 403.624 872.531Z"/>
	<path fill="#346BB4" d="M594.638 872.598C599.607 872.496 606.316 871.637 610.976 873.478C612.439 874.056 613.069 874.802 613.704 876.197C613.692 878.627 612.393 880.236 610.763 881.894C606.789 882.043 602.733 882.337 598.76 882.229C596.181 882.159 594.178 881.718 592.393 879.809C591.882 878.549 591.713 877.665 591.932 876.301C592.232 874.441 593.236 873.643 594.638 872.598Z"/>
	<path fill="#346BB4" d="M329.502 872.543C337.966 871.419 350.903 872.28 359.765 872.262C368.004 872.246 381.489 871.337 389.243 872.481C390.195 872.621 390.872 872.858 391.597 873.515C392.618 874.439 392.866 875.566 392.741 876.882C392.522 879.185 391.656 880.359 389.954 881.852C377.721 881.982 365.475 881.654 353.24 881.622C346.113 881.603 338.685 882.172 331.598 881.58C330.688 881.504 329.695 881.311 328.961 880.724C327.824 879.815 327.34 878.95 327.219 877.5C327.043 875.401 328.135 873.97 329.502 872.543Z"/>
	<path fill="#346BB4" d="M641.212 872.747C649.273 872.726 690.408 872.019 694.454 873.927C695.894 874.605 696.363 875.4 696.911 876.843C696.747 878.146 696.569 879.212 695.594 880.186C693.028 882.749 681.083 881.582 677.144 881.544L645.557 881.657C638.816 881.725 630.349 882.772 623.829 881.306C622.271 880.956 621.121 880.506 620.242 879.095C620.222 877.298 620.246 875.662 621.665 874.319C624.997 871.167 636.498 872.738 641.212 872.747Z"/>
	<path fill="#346BB4" d="M432.787 872.045C445.748 871.452 458.899 871.835 471.876 871.838L538.734 871.907L568.853 872.075C572.764 872.098 577.498 871.508 581.279 872.305C582.29 872.518 583.06 872.943 583.584 873.836C584.506 875.409 584.392 877.064 583.956 878.771C583.532 880.435 582.845 881.107 581.406 881.961L482.636 881.943L451.821 881.843C446.012 881.819 439.977 882.096 434.197 881.561C432.768 881.429 431.448 881.171 430.477 879.996C429.641 878.984 429.492 877.595 429.682 876.34C430.002 874.222 431.095 873.214 432.787 872.045Z"/>
	<path d="M442.398 488.865C444.618 491.009 446.558 493.453 448.759 495.633C465.478 512.2 480.821 524.611 505.175 526.606Q508.216 526.841 511.265 526.848Q514.315 526.855 517.357 526.635Q520.398 526.415 523.415 525.968Q526.432 525.521 529.407 524.85C552.699 519.617 563.573 504.341 580.666 489.906C581.028 499.055 580.881 508.237 580.877 517.392L580.896 525.558C577.763 528.641 573.956 531.195 570.327 533.655C554.408 544.45 536.721 550.605 517.423 551.535Q516.087 551.604 514.749 551.641Q513.411 551.677 512.073 551.68Q510.735 551.683 509.397 551.653Q508.06 551.622 506.723 551.559Q505.387 551.496 504.052 551.399Q502.717 551.303 501.385 551.173Q500.054 551.044 498.725 550.881Q497.397 550.718 496.074 550.523Q494.75 550.328 493.431 550.099Q492.113 549.871 490.8 549.61Q489.488 549.349 488.182 549.056Q486.877 548.763 485.579 548.437Q484.281 548.112 482.992 547.754Q481.702 547.396 480.422 547.007Q479.142 546.617 477.872 546.196Q476.602 545.775 475.343 545.323Q474.083 544.87 472.836 544.386Q471.588 543.903 470.353 543.388Q469.117 542.874 467.895 542.329Q466.673 541.784 465.465 541.209Q464.257 540.634 463.063 540.029Q461.87 539.424 460.691 538.79Q459.513 538.156 458.351 537.492Q457.189 536.829 456.044 536.137Q454.898 535.445 453.77 534.725Q452.643 534.005 451.533 533.257Q450.423 532.51 449.333 531.734Q448.242 530.959 447.171 530.157Q446.1 529.355 445.049 528.527Q443.998 527.699 442.968 526.845Q441.938 525.991 440.929 525.111Q439.92 524.232 438.934 523.328C441.238 511.972 440.126 500.131 442.398 488.865Z"/>
	<path fill="#346BB4" d="M290.415 890.063C315.625 889.275 341.102 890.121 366.347 890.069L551.045 890.099L669.16 890.12L707.62 890.188C715.016 890.226 722.619 889.975 729.983 890.599C733.437 890.892 736.377 892.911 739.166 894.809C724.234 903.033 709.29 910.893 693.783 917.989C671.083 928.265 648.107 936.747 623.912 942.835C611.08 946.064 598.158 949.472 585.101 951.642Q580.281 952.444 575.444 953.14Q570.607 953.836 565.756 954.426Q560.905 955.015 556.042 955.498Q551.179 955.98 546.307 956.356Q541.435 956.732 536.556 957Q531.676 957.268 526.792 957.429Q521.908 957.59 517.022 957.644Q512.135 957.698 507.249 957.644Q502.363 957.59 497.479 957.428Q492.595 957.267 487.715 956.998Q482.836 956.73 477.964 956.354Q473.092 955.978 468.229 955.495Q463.366 955.012 458.515 954.422Q453.664 953.833 448.827 953.136Q443.991 952.44 439.17 951.637Q434.35 950.835 429.548 949.927Q424.747 949.018 419.966 948.005Q415.186 946.991 410.429 945.873Q405.672 944.754 400.941 943.531Q396.21 942.308 391.507 940.982Q386.803 939.655 382.13 938.225Q377.458 936.796 372.817 935.264Q368.177 933.732 363.572 932.098Q358.966 930.464 354.398 928.729Q349.829 926.995 345.3 925.16Q340.771 923.325 336.283 921.391Q331.795 919.458 327.351 917.425Q322.907 915.393 318.509 913.264Q314.11 911.135 309.76 908.909Q305.409 906.684 301.109 904.363Q296.808 902.043 292.56 899.628Q288.311 897.213 284.117 894.706C286.028 892.554 287.803 891.273 290.415 890.063Z"/>
	<path fill="#346BB4" d="M634.155 311.814C658.427 324.513 685.222 346.313 700.158 369.612C705.421 377.822 709.074 386.847 706.839 396.73C704.732 406.048 695.456 426.026 690.981 435.021C678.212 460.681 661.432 481.399 641.454 501.852C631.798 511.736 621.908 521.172 611.051 529.744C598.658 539.528 584.975 548.567 571.573 556.937C556.189 566.546 540.014 574.82 524.701 584.482C518.047 584.907 505.631 585.76 499.682 583.369C492.01 580.286 483.641 573.976 476.169 569.936C430.227 545.097 393.35 516.704 361.005 475.449C348.462 459.452 337.289 442.286 328.957 423.701C322.373 409.017 316.082 391.823 322.28 375.915C330.646 354.439 368.252 321.093 389.112 312.042C389.181 319.395 389.672 326.879 389.073 334.208C385.553 337.376 383.599 339.991 382.126 344.55C376.398 362.266 377 386.825 385.573 403.568C389.325 410.895 394.142 416.335 402.137 418.898C405.141 442.91 416.677 459.718 430.788 478.363C431.125 491.632 429.586 504.243 427.796 517.34L411.893 519.211Q424.174 529.286 437.259 538.293Q450.344 547.301 464.14 555.176C468.47 557.205 473.304 560.012 478.016 560.874C496.389 564.166 514.32 565.436 532.904 562.802C540.081 561.784 547.279 559.406 554.497 558.905C554.685 558.892 554.874 558.884 555.062 558.873C559.556 557.177 564.412 552.834 568.448 550.154C583.768 539.983 597.719 531.001 612.312 519.575Q603.352 518.193 594.338 517.222L594.249 476.508C609.062 460.379 618 439.662 622.78 418.503C625.682 417.161 628.295 415.744 630.686 413.562C643.28 402.071 641.58 382.767 641.6 367.326C641.609 360.585 642.128 353.266 640.964 346.62C640.307 342.867 638.101 339.995 636.165 336.811C631.917 329.828 633.807 319.648 634.155 311.814Z"/>
	<path fill="#01245C" d="M478.016 560.874C496.389 564.166 514.32 565.436 532.904 562.802C540.081 561.784 547.279 559.406 554.497 558.905C554.685 558.892 554.874 558.884 555.062 558.873C548.73 565.787 531.695 576.019 522.516 576.34C512.56 576.688 498.008 577.332 489.41 572.104C485.292 569.601 480.52 565.702 476.037 564.029L475.079 562.568L475.237 561.948L478.016 560.874Z"/>
	<path d="M502.172 282.25C534.261 279.934 568.061 287.898 598.272 298.066C605.334 300.443 612.548 302.803 619.327 305.916C621.841 318.106 620.904 331.415 620.805 343.822C622.853 343.983 625.114 343.942 626.627 345.495C629.464 352.924 628.067 375.22 627.057 383.766C626.371 389.569 624.817 400.726 619.716 404.427C616.929 406.449 613.847 405.967 610.656 405.551C609.76 423.352 603.484 442.887 592.847 457.346C585.063 467.925 552.546 499.975 541.491 506.326C534.453 510.369 527.052 512.532 519.068 513.72C506.264 515.214 490.833 513.201 480.01 505.759C472.394 500.523 465.703 493.273 458.932 486.97C430.743 460.729 419.719 445.729 412.542 407.022C409.734 406.524 407.165 406.072 404.807 404.337C397.701 399.107 395.484 388.764 394.491 380.498C393.637 373.394 392.381 350.785 396.936 344.977C398.753 344.038 400.957 344.463 402.938 344.588C402.488 332.042 401.57 318.641 403.125 306.164C408.192 303.626 413.736 301.822 419.057 299.894C445.611 290.276 473.931 283.808 502.172 282.25Z"/>
	<path fill="#E5F0FB" d="M447.615 341.097C454.164 340.406 460.616 341.68 466.902 343.457C475.249 345.815 490.818 350.961 495.072 359.256C496.123 361.305 496.308 363.571 495.572 365.755C493.775 371.09 487.616 374.279 482.897 376.638C473.585 380.154 462.771 380.268 453.449 376.616C446.71 373.976 440.454 368.808 437.627 362.025C436.033 358.199 435.464 353.632 437.152 349.738C439.114 345.209 443.16 342.717 447.615 341.097Z"/>
	<path fill="#E5F0FB" d="M567.812 341.673C570.406 341.409 573.114 341.164 575.723 341.389C579.545 341.718 583.239 342.968 585.764 345.987C588.199 348.898 588.95 352.992 588.545 356.69C587.916 362.443 584.402 367.429 580.029 371.04C571.289 378.258 560.438 380.014 549.446 378.926C544.248 377.996 539.326 376.34 534.992 373.24C531.992 371.094 528.458 367.829 527.912 363.966C527.581 361.624 528.493 359.48 529.932 357.674C537.508 348.165 556.349 343.276 567.812 341.673Z"/>
	<defs>
		<linearGradient id="gradient_0" gradientUnits="userSpaceOnUse" x1="491.29059" y1="919.78394" x2="612.1131" y2="148.72876">
			<stop offset="0" stop-color="#1357A9"/>
			<stop offset="1" stop-color="#2D71C1"/>
		</linearGradient>
	</defs>
	<path fill="url(#gradient_0)" d="M505.373 133.704C526.045 132.008 545.336 138.377 562.387 149.827Q568.096 153.732 573.541 157.998Q578.985 162.264 584.144 166.872Q589.302 171.48 594.153 176.411Q599.003 181.342 603.525 186.576C615.055 200.069 625.385 214.508 635.456 229.101Q655.225 257.979 672.817 288.233Q690.409 318.486 705.729 349.952C711.142 360.843 719.085 374.109 721.34 385.98C721.976 389.327 722.144 392.743 721.66 396.121C720.717 402.7 718.061 409.146 715.677 415.321Q712.317 424.23 708.343 432.882Q704.369 441.535 699.801 449.889Q695.233 458.242 690.092 466.257Q684.952 474.272 679.265 481.908Q672.208 491.176 664.492 499.904C661.032 503.867 657.171 507.82 654.215 512.169C654.116 512.313 654.021 512.46 653.925 512.606C663.744 516.16 673.729 519.184 683.505 522.896Q706.239 531.485 728.261 541.762Q750.283 552.039 771.468 563.946C780.007 568.762 788.622 573.552 796.754 579.036C804.323 602.813 812.115 626.265 818.346 650.461Q821.037 660.885 823.318 671.407Q825.6 681.928 827.467 692.531Q829.335 703.134 830.786 713.802Q832.237 724.469 833.269 735.186Q834.301 745.902 834.914 756.651Q835.526 767.399 835.716 778.164Q835.907 788.928 835.677 799.691Q835.446 810.455 834.794 821.201C821.444 832.585 808.653 844.604 794.999 855.631C780.511 867.332 765.187 877.879 749.928 888.532C745.086 885.703 739.463 882.2 734.017 880.73C726.992 878.833 711.276 881.214 706.729 879.247L706.455 878.172C706.971 876.912 707.368 876.476 708.801 876.12C711.251 875.51 714.196 875.79 716.717 875.771C723.905 875.716 731.228 873.852 737.018 869.439C750.698 859.012 752.11 843.163 754.203 827.349C764.558 818.318 773.949 807.806 783.7 798.1C788.836 792.988 795.355 787.767 800.016 782.37C801.172 781.032 802.094 779.354 802.376 777.594C802.629 776.02 802.299 774.874 801.403 773.554C800.592 773.147 800.282 772.849 799.344 772.898C797.612 772.988 796.008 774.161 794.708 775.213C789.65 779.308 785.345 784.812 780.711 789.414C772.327 797.742 763.533 805.603 755.788 814.557C758.446 803.737 759.621 792.254 761.335 781.226Q764.966 758.372 769.12 735.607L784.951 646.143C786.801 635.323 791.037 616.946 790.768 606.762C790.624 601.271 787.125 594.659 783.187 590.925C779.518 587.446 775.079 585.14 770.065 584.448C759.335 582.968 747.662 583.943 736.828 583.927L684.005 583.523L589.665 583.44C573.17 583.471 556.558 583.079 540.085 583.814C564.237 569.802 588.409 555.677 610.688 538.779C653.023 506.668 679.54 475.963 701.792 427.611C706.031 418.4 711.851 408.288 713.169 398.108C715.337 381.361 706.56 365.662 696.504 352.905C670.009 319.296 620.896 293.679 580.203 282.787C566.933 279.235 553.143 277.21 539.515 275.65Q534.126 275.104 528.72 274.765Q523.314 274.427 517.899 274.298Q512.484 274.168 507.068 274.247Q501.652 274.327 496.243 274.615Q490.834 274.903 485.44 275.399Q480.046 275.895 474.675 276.599Q469.305 277.303 463.965 278.213Q458.626 279.124 453.325 280.239C406.264 290.338 348.813 319.829 322.335 361.268C313.891 374.483 310.624 387.029 314.043 402.464C318.376 422.02 330.693 444.42 341.889 461.018C370.949 504.103 401.911 532.035 445.319 560.364C457.844 568.538 470.86 575.99 483.46 584.08L334.907 583.723L285.163 583.587C276.043 583.596 266.352 583.037 257.324 584.343C249.236 585.512 241.973 589.667 237.184 596.344C234.302 600.363 232.579 605.491 232.555 610.45C232.524 616.658 234.276 623.418 235.285 629.576L241.485 667.28L254.189 740.208C257.9 762.499 261.102 784.863 265.149 807.102C257.48 801.215 249.82 795.384 242.976 788.52C239.477 785.011 236.739 780.768 233.102 777.408C231.643 776.06 229.752 774.654 227.657 774.865C226.479 774.984 225.463 775.611 224.815 776.626C224.097 777.753 224.061 778.988 224.355 780.25C227.132 792.171 256.489 812.997 267.247 819.764C269.359 832.513 269.609 846.704 276.787 857.877C282.907 867.402 293.138 874.524 304.436 876.069C307.917 876.545 312.067 875.985 315.39 876.876C316.552 877.188 316.604 877.395 317.147 878.382C316.65 880.074 315.939 879.953 314.264 879.945C305.842 879.908 289.691 878.159 282.348 881.525C279.379 882.886 276.624 885.661 274.074 887.715C262.889 882.317 252.219 873.287 242.573 865.542C223.238 850.016 203.289 833.898 187.526 814.629C187.365 802.11 188.733 789.465 189.666 776.988Q191.071 756.311 193.491 735.727Q195.91 715.144 199.338 694.704Q202.767 674.264 207.195 654.018Q211.624 633.771 217.042 613.767C220.003 603.105 222.628 592.041 226.461 581.671C233.056 575.597 242.387 571.286 250.161 566.879Q269.868 555.487 290.252 545.355Q310.636 535.223 331.615 526.39C344.521 520.868 357.505 515.439 370.905 511.219C346.134 485.413 308.637 433.393 304.992 397.738Q304.811 396.055 304.725 394.364Q304.639 392.673 304.648 390.979Q304.657 389.286 304.762 387.596Q304.867 385.906 305.067 384.225Q305.267 382.544 305.561 380.876Q305.855 379.209 306.243 377.561Q306.631 375.912 307.111 374.289Q307.591 372.665 308.162 371.071C312.982 357.893 323.058 346.558 329.705 334.15C333.768 326.565 337.142 318.586 340.857 310.826C345.318 301.508 350.112 292.297 354.926 283.156C370.501 253.578 389.712 224.855 410.697 198.857C428.413 176.909 449.964 152.006 476.457 140.758C485.638 136.861 495.488 134.763 505.373 133.704Z"/>
	<path fill="#E5F0FB" d="M511.908 147.235C512.219 147.529 512.388 147.636 512.581 148.028C514.268 151.436 513.325 165.359 512.347 168.965C510.957 162.081 509.471 153.958 511.908 147.235Z"/>
	<path fill="#E5F0FB" d="M398.345 550.089C399.792 550.166 401.192 550.249 402.551 550.796C405.307 551.906 407.563 554.011 408.574 556.833C409.509 559.445 409.272 562.222 408 564.676C406.378 567.805 403.774 569.039 400.586 570.148C398.261 570.179 396.092 570.135 393.983 569.034C391.58 567.78 389.756 565.626 389.034 563.005Q388.903 562.525 388.821 562.035Q388.74 561.544 388.709 561.048Q388.678 560.552 388.699 560.055Q388.719 559.558 388.79 559.066Q388.861 558.573 388.982 558.091Q389.104 557.609 389.273 557.141Q389.443 556.674 389.66 556.226Q389.877 555.779 390.139 555.356C392.08 552.168 394.883 551.007 398.345 550.089Z"/>
	<path fill="#E5F0FB" d="M616.657 551.531C618.942 551.435 621.194 551.517 623.306 552.5Q623.786 552.725 624.241 552.996Q624.696 553.267 625.123 553.581Q625.55 553.894 625.945 554.248Q626.34 554.601 626.698 554.991Q627.057 555.382 627.376 555.805Q627.695 556.228 627.971 556.68Q628.247 557.132 628.479 557.608Q628.71 558.085 628.894 558.582C629.884 561.296 629.751 564.411 628.396 566.979C626.828 569.951 624.541 571.421 621.446 572.483C619.579 572.556 617.776 572.532 615.976 571.961C613.161 571.068 610.67 568.92 609.408 566.248Q609.172 565.759 608.99 565.248Q608.807 564.737 608.68 564.209Q608.553 563.682 608.482 563.144Q608.411 562.606 608.398 562.063Q608.385 561.521 608.429 560.98Q608.474 560.439 608.575 559.906Q608.676 559.373 608.833 558.853Q608.991 558.334 609.202 557.834C610.677 554.419 613.313 552.798 616.657 551.531Z"/>
	<path fill="#E5F0FB" d="M511.601 192.315C514.024 194.714 524.068 236.041 525.945 242.622L513.125 242.497L497.999 242.478C500.106 232.16 503.195 222.087 506.088 211.971C507.959 205.428 509.587 198.817 511.601 192.315Z"/>
	<path fill="#346BB4" d="M261.252 592.575C270.722 591.816 280.781 592.798 290.315 592.795L359.12 592.686L581.413 592.729L710.158 592.46L746.908 592.458C753.367 592.464 760.346 591.985 766.747 592.865C772.2 593.614 776.177 595.982 779.485 600.434C781.056 602.549 782.477 605.557 782.328 608.248C781.82 617.389 779.189 627.129 777.617 636.177L768.937 687.475Q755.086 765.786 742.852 844.365C742.52 847.438 741.717 850.167 740.27 852.91C736.88 859.338 730.27 864.521 723.271 866.504C715.817 868.617 706.05 867.302 698.225 867.279L672.375 867.373L522.725 867.452L374.199 867.483L336.148 867.449C327.757 867.502 319.247 867.923 310.868 867.53C305.389 867.273 300.267 865.961 295.529 863.16C287.464 858.393 283.58 851.345 281.382 842.531C277.613 827.412 275.544 811.588 272.988 796.208L260.377 720.041L249.323 652.676C247.077 639.437 243.838 625.783 242.843 612.395C242.554 608.508 242.723 605.385 244.884 601.996C248.556 596.238 254.943 594.017 261.252 592.575Z"/>
	<path fill="#E5F0FB" d="M509.936 705.19C512.884 704.851 515.821 705.12 518.703 705.785C525.933 707.456 532.967 712.056 536.83 718.466C539.79 723.378 540.822 729.437 539.348 735.009C537.241 742.973 530.973 747.251 524.209 751.036L531.605 782.682C533.614 791.175 535.876 799.675 537.111 808.323C534.724 802.726 532.925 796.826 530.72 791.145C526.39 779.988 521.395 768.635 515.951 757.976L513.669 754.004C505.839 771.084 496.18 787.373 487.817 804.208C489.102 797.993 491.237 791.905 492.659 785.704C495.23 774.494 497.017 763.046 498.688 751.672C496.571 750.465 494.388 749.284 492.439 747.815C487.484 744.08 483.737 738.883 482.94 732.613C482.208 726.85 484.057 720.895 487.623 716.354C493.065 709.422 501.44 706.196 509.936 705.19Z"/>
	<path fill="#346BB4" d="M494.705 68.2797Q504.782 67.7485 514.872 67.7348Q524.963 67.7211 535.041 68.225Q545.119 68.7289 555.158 69.749Q565.197 70.7692 575.17 72.3029C653.687 83.687 719.332 113.313 782.514 160.721C799.54 173.496 814.978 188.323 829.701 203.658C835.974 210.191 842.447 216.606 848.373 223.455Q852.354 228.09 856.207 232.832Q860.06 237.574 863.782 242.419Q867.503 247.265 871.091 252.21Q874.678 257.156 878.13 262.198Q881.58 267.24 884.892 272.374Q888.204 277.509 891.374 282.732Q894.544 287.955 897.569 293.263Q900.595 298.571 903.474 303.96Q906.354 309.349 909.085 314.815Q911.815 320.28 914.396 325.819Q916.976 331.357 919.403 336.964Q921.831 342.571 924.104 348.242Q926.377 353.913 928.495 359.645Q930.612 365.376 932.572 371.163Q934.531 376.95 936.331 382.789Q938.132 388.627 939.772 394.513C944.788 412.3 949.147 429.933 951.732 448.255Q952.385 452.709 952.946 457.176Q953.507 461.643 953.976 466.12Q954.445 470.597 954.822 475.083Q955.199 479.569 955.484 484.062Q955.769 488.555 955.962 493.052Q956.155 497.55 956.255 502.051Q956.355 506.552 956.363 511.053Q956.371 515.555 956.287 520.056Q956.202 524.557 956.025 529.056Q955.848 533.554 955.579 538.048Q955.31 542.541 954.948 547.029Q954.587 551.516 954.133 555.995Q953.68 560.474 953.134 564.942Q952.589 569.411 951.952 573.868Q951.315 578.324 950.586 582.767Q949.858 587.209 949.039 591.636Q948.219 596.062 947.309 600.471Q946.399 604.88 945.398 609.269Q944.398 613.658 943.307 618.026Q942.217 622.394 941.037 626.738Q939.857 631.083 938.588 635.402Q937.32 639.721 935.962 644.014Q934.605 648.306 933.16 652.57Q931.715 656.833 930.183 661.066Q928.65 665.299 927.032 669.5Q925.413 673.701 923.708 677.867Q922.003 682.034 920.213 686.164Q918.423 690.295 916.549 694.388Q914.674 698.481 912.716 702.535Q910.758 706.589 908.717 710.601Q906.676 714.614 904.554 718.584Q902.431 722.553 900.227 726.479C891.746 741.876 882.996 757.689 872.419 771.757C871.49 757.874 871.071 744.065 869.73 730.189Q868.348 716.057 866.337 702.001Q864.326 687.944 861.689 673.992Q859.053 660.039 855.796 646.218Q852.54 632.397 848.67 618.735C844.656 604.326 839.877 589.983 835.144 575.787C832.839 568.871 830.066 561.957 828.243 554.905L828.06 554.184C807.871 539.963 785.668 527.066 763.501 516.167C749.24 509.156 734.618 502.962 720.299 496.094C723.715 488.524 728.391 481.311 732.196 473.888C742.773 453.251 752.655 429.872 756.496 406.887C758.518 394.792 758.181 383.1 754.963 371.255C746.281 339.296 725.12 306.223 708.777 277.451C692.647 249.051 676.924 220.187 657.935 193.545C625.829 148.501 583.547 102.724 526.456 93.1432Q522.721 92.6252 518.958 92.3734Q515.195 92.1216 511.424 92.1373Q507.653 92.1529 503.892 92.4359Q500.132 92.7189 496.401 93.2678C437.43 102.184 396.997 154.329 363.995 199.411C343.956 226.785 326.57 256.05 309.715 285.449C297.035 307.567 283.872 330.311 274.365 354.008C270.854 362.758 267.843 371.946 266.341 381.262C263.354 399.796 266.746 418.532 273.555 435.866C280.151 452.661 289.572 469.244 299.458 484.329C300.959 486.618 304.718 491.043 304.78 493.724C304.836 496.152 302.369 496.843 300.477 497.785C290.603 502.703 280.246 506.661 270.3 511.453C252 520.269 234.465 530.054 217.021 540.433C210.566 544.274 202.938 547.902 197.293 552.801C190.837 558.404 187.965 573.549 185.475 581.854C166.296 645.83 157.575 706.082 152.223 772.317C142.113 760.477 133.813 745.865 126.15 732.348Q122.899 726.691 119.817 720.939Q116.736 715.187 113.828 709.345Q110.92 703.504 108.188 697.578Q105.456 691.653 102.901 685.648Q100.347 679.644 97.9732 673.566Q95.5993 667.488 93.4079 661.342Q91.2165 655.195 89.2096 648.987Q87.2027 642.778 85.382 636.512Q83.5613 630.246 81.9284 623.928Q80.2956 617.61 78.8521 611.247Q77.4086 604.883 76.1556 598.48Q74.9027 592.076 73.8415 585.638Q72.7803 579.199 71.9118 572.732Q71.0432 566.265 70.3681 559.775Q69.693 553.285 69.2119 546.777Q68.7309 540.27 68.4443 533.751Q68.2004 528.16 68.0961 522.565Q67.9918 516.97 68.0273 511.374Q68.0627 505.778 68.2379 500.185Q68.4131 494.592 68.7278 489.005Q69.0426 483.418 69.4967 477.84Q69.9509 472.262 70.5442 466.698Q71.1375 461.133 71.8695 455.586Q72.6015 450.038 73.4718 444.51Q74.3421 438.982 75.3502 433.477Q76.3582 427.973 77.5034 422.495Q78.6486 417.018 79.9301 411.57Q81.2117 406.123 82.6289 400.709Q84.0461 395.296 85.598 389.919Q87.1499 384.543 88.8355 379.207Q90.5212 373.87 92.3396 368.578Q94.1579 363.286 96.1078 358.04Q98.0578 352.795 100.138 347.6Q102.218 342.405 104.428 337.264Q106.637 332.122 108.974 327.038Q111.311 321.953 113.774 316.928Q116.238 311.904 118.825 306.942Q121.413 301.98 124.124 297.085Q126.835 292.189 129.668 287.363Q132.5 282.537 135.452 277.783Q138.404 273.029 141.474 268.35Q144.544 263.671 147.729 259.07Q150.915 254.469 154.215 249.949Q157.514 245.43 160.925 240.994Q164.337 236.558 167.858 232.208Q171.379 227.859 175.007 223.598Q178.636 219.338 182.37 215.17Q186.103 211.002 189.94 206.928Q193.599 202.998 197.354 199.159Q201.109 195.32 204.957 191.575Q208.805 187.83 212.745 184.181Q216.684 180.532 220.712 176.981Q224.74 173.43 228.854 169.979Q232.968 166.528 237.166 163.18Q241.364 159.831 245.643 156.588Q249.923 153.344 254.28 150.206Q258.638 147.068 263.072 144.039Q267.506 141.01 272.013 138.091Q276.52 135.172 281.097 132.364Q285.675 129.557 290.32 126.863Q294.965 124.17 299.676 121.591Q304.386 119.013 309.158 116.551Q313.931 114.09 318.762 111.746Q323.594 109.403 328.481 107.179Q333.369 104.956 338.31 102.853Q343.251 100.751 348.242 98.7704Q353.234 96.7902 358.272 94.9336Q363.311 93.0769 368.394 91.3449Q373.477 89.6129 378.601 88.0066Q383.724 86.4003 388.886 84.9208Q394.048 83.4412 399.245 82.0892Q404.442 80.7372 409.67 79.5136Q414.899 78.29 420.156 77.1956Q425.413 76.1012 430.696 75.1366Q435.978 74.172 441.283 73.3378Q446.587 72.5036 451.911 71.8003Q457.234 71.097 462.574 70.525Q467.913 69.9531 473.264 69.5128Q478.616 69.0725 483.977 68.7642Q489.338 68.4559 494.705 68.2797Z"/>
</svg>
